<svg width="16" height="16" viewBox="0 0 16 16" fill="none" xmlns="http://www.w3.org/2000/svg">
<path fill-rule="evenodd" clip-rule="evenodd" d="M0 8C0 3.58172 3.58172 0 8 0C12.4183 0 16 3.58172 16 8C16 12.4183 12.4183 16 8 16C3.58172 16 0 12.4183 0 8ZM5.65352 6.62589H3.84054V12.0731H5.65352V6.62589ZM5.77292 4.9409C5.76115 4.4068 5.37921 4 4.75901 4C4.1388 4 3.73333 4.4068 3.73333 4.9409C3.73333 5.46393 4.12681 5.88245 4.73547 5.88245H4.74706C5.37921 5.88245 5.77292 5.46393 5.77292 4.9409ZM12.1918 8.94989C12.1918 7.27673 11.2974 6.49802 10.1044 6.49802C9.14181 6.49802 8.71085 7.02673 8.47023 7.39763V6.62608H6.65704C6.68093 7.13722 6.65704 12.0733 6.65704 12.0733H8.47023V9.03113C8.47023 8.86833 8.482 8.70592 8.52993 8.58937C8.66096 8.26413 8.9593 7.92739 9.46017 7.92739C10.1165 7.92739 10.3788 8.42689 10.3788 9.15889V12.0732H12.1917L12.1918 8.94989Z" fill="black"/>
</svg>
