<svg width="259" height="38" viewBox="0 0 259 38" fill="none" xmlns="http://www.w3.org/2000/svg">
<path d="M23.808 20.472C23.808 21.9653 23.4133 23.2027 22.624 24.184C21.856 25.1653 20.8427 25.88 19.584 26.328C18.3467 26.776 17.024 27 15.616 27H3.52V3.128H15.616C17.6853 3.128 19.3707 3.704 20.672 4.856C21.9947 6.008 22.656 7.608 22.656 9.656C22.656 10.7013 22.464 11.64 22.08 12.472C21.7173 13.2827 21.1947 13.912 20.512 14.36C21.4293 14.7867 22.208 15.5333 22.848 16.6C23.488 17.6453 23.808 18.936 23.808 20.472ZM6.976 13.944C7.63733 13.56 8.33067 13.304 9.056 13.176C9.78133 13.048 10.6027 12.984 11.52 12.984H15.616C16.7253 12.984 17.5893 12.7067 18.208 12.152C18.848 11.5973 19.168 10.776 19.168 9.688C19.168 7.66133 17.984 6.648 15.616 6.648H6.976V13.944ZM15.968 23.512C16.672 23.512 17.3547 23.384 18.016 23.128C18.6987 22.872 19.2533 22.4773 19.68 21.944C20.128 21.4107 20.352 20.7707 20.352 20.024C20.352 18.744 19.904 17.848 19.008 17.336C18.112 16.8027 16.9813 16.536 15.616 16.536H11.52C9.68533 16.536 8.17067 16.856 6.976 17.496V23.512H15.968ZM36.8288 10.04L45.7888 27H42.1728L40.8608 24.504H38.8768C37.6181 24.504 36.3381 24.6427 35.0368 24.92C33.7354 25.176 32.6154 25.496 31.6768 25.88C30.7381 26.2427 30.1728 26.552 29.9808 26.808L29.8848 27H26.4288L34.3648 12.12L33.2768 10.04H36.8288ZM39.2928 21.496L36.0608 15.352L32.1248 22.936C32.8501 22.552 33.7674 22.2213 34.8767 21.944C36.0074 21.6453 37.3301 21.496 38.8448 21.496H39.2928ZM49.965 27V10.424H53.453V21.048L61.101 10.424H65.325L59.853 17.88L62.285 21.976C62.733 22.5947 63.1703 23 63.597 23.192C64.045 23.3627 64.5357 23.448 65.069 23.448H66.221V27H64.781C64.1197 27 63.5543 26.9467 63.085 26.84C62.637 26.712 62.157 26.4667 61.645 26.104C61.133 25.72 60.5677 25.144 59.949 24.376L57.645 20.6L53.453 27H49.965ZM85.9728 23.672V27H72.3088V10.424H85.3647V13.72H75.5728V17.752C76.2341 17.368 76.9808 17.112 77.8128 16.984C78.6448 16.856 79.6261 16.792 80.7568 16.792H83.1888V20.088H80.7568C79.2848 20.088 78.2394 20.152 77.6208 20.28C77.0021 20.3867 76.3194 20.6427 75.5728 21.048V23.672H85.9728ZM91.895 3.128H95.319V27H91.895V3.128ZM109.436 27H106.14V13.72H100.124V10.424H115.676V13.72H109.436V27Z" fill="white"/>
<path d="M138.72 10.35C139.34 10.05 139.71 9.52 139.71 8.81C139.71 7.65 138.75 7 137.13 7H133.87V14H137.32C139.09 14 140.04 13.25 140.04 12.03C140.04 11.18 139.57 10.6 138.72 10.35ZM135.48 8.2H136.99C137.69 8.2 138.06 8.5 138.06 9.05C138.06 9.61 137.69 9.9 136.99 9.9H135.48V8.2ZM137.26 12.8H135.48V11.03H137.26C138.01 11.03 138.4 11.31 138.4 11.9C138.4 12.51 138.01 12.8 137.26 12.8ZM141.201 14H142.641L145.251 10.8V14H146.801V8.62H145.371L142.751 11.82V8.62H141.201V14ZM152.821 8.62H147.631V9.9H149.451V14H151.001V9.9H152.821V8.62ZM156.822 8.54C156.102 8.54 155.522 8.77 155.132 9.24V8.62H153.642V15.94H155.202V13.43C155.602 13.87 156.152 14.08 156.822 14.08C158.332 14.08 159.502 13 159.502 11.31C159.502 9.62 158.332 8.54 156.822 8.54ZM156.552 12.8C155.772 12.8 155.182 12.24 155.182 11.31C155.182 10.38 155.772 9.82 156.552 9.82C157.332 9.82 157.922 10.38 157.922 11.31C157.922 12.24 157.332 12.8 156.552 12.8ZM160.596 14H162.036L164.646 10.8V14H166.196V8.62H164.766L162.146 11.82V8.62H160.596V14ZM167.695 14H169.245V11.99H171.585V14H173.145V8.62H171.585V10.72H169.245V8.62H167.695V14ZM177.469 10.34H176.189V8.62H174.639V14L177.259 14.01C178.759 14.01 179.599 13.32 179.599 12.13C179.599 11 178.879 10.35 177.469 10.34ZM180.179 14H181.729V8.62H180.179V14ZM177.119 12.9H176.189V11.34L177.119 11.35C177.719 11.36 178.049 11.58 178.049 12.11C178.049 12.64 177.719 12.91 177.119 12.9ZM191.324 12.72V8.62H186.634L186.564 10.48C186.504 11.65 186.374 12.7 185.634 12.72H185.414V15.16H186.864V14H190.644V15.16H192.094V12.72H191.324ZM187.974 10.59L188.004 9.9H189.764V12.72H187.494C187.874 12.32 187.944 11.5 187.974 10.59ZM193.636 8.62L193.556 10.78C193.506 11.8 193.446 12.73 192.706 12.73C192.636 12.73 192.556 12.72 192.476 12.71L192.396 13.99C192.706 14.07 192.966 14.11 193.206 14.11C194.536 14.11 194.846 12.77 194.926 10.85L194.976 9.9H196.676V14H198.236V8.62H193.636ZM201.946 8.62C200.366 8.62 199.376 9.32 199.376 10.6C199.376 11.39 199.786 11.95 200.526 12.24L199.296 14H200.956L201.976 12.46H203.126V14H204.516V8.62H201.946ZM201.976 9.89H203.126V11.42H201.956C201.306 11.42 200.966 11.19 200.966 10.65C200.966 10.11 201.326 9.89 201.976 9.89ZM212.958 11.19C213.458 10.96 213.748 10.55 213.748 10.01C213.748 9.13 212.948 8.62 211.598 8.62H208.848V14H211.718C213.198 14 213.908 13.42 213.908 12.47C213.908 11.83 213.588 11.4 212.958 11.19ZM210.278 9.68H211.458C211.998 9.68 212.278 9.86 212.278 10.25C212.278 10.63 211.998 10.83 211.458 10.83H210.278V9.68ZM211.588 12.94H210.278V11.75H211.618C212.188 11.75 212.448 11.94 212.448 12.35C212.448 12.75 212.158 12.94 211.588 12.94ZM217.898 10.34H216.618V8.62H215.068V14L217.688 14.01C219.188 14.01 220.028 13.32 220.028 12.13C220.028 11 219.308 10.35 217.898 10.34ZM220.608 14H222.158V8.62H220.608V14ZM217.548 12.9H216.618V11.34L217.548 11.35C218.148 11.36 218.478 11.58 218.478 12.11C218.478 12.64 218.148 12.91 217.548 12.9ZM223.662 8.62V14H225.212V9.9H227.452V14H229.012V8.62H223.662ZM235.738 11.33C235.738 9.6 234.518 8.54 232.938 8.54C231.298 8.54 230.068 9.7 230.068 11.31C230.068 12.91 231.278 14.08 233.138 14.08C234.108 14.08 234.858 13.78 235.358 13.21L234.528 12.31C234.158 12.66 233.748 12.83 233.178 12.83C232.358 12.83 231.788 12.42 231.638 11.75H235.708C235.718 11.62 235.738 11.45 235.738 11.33ZM232.948 9.72C233.648 9.72 234.158 10.16 234.268 10.84H231.618C231.728 10.15 232.238 9.72 232.948 9.72ZM240.214 8.62V10.88C239.864 11.05 239.474 11.14 239.064 11.14C238.444 11.14 238.074 10.88 238.074 10.21V8.62H236.514V10.31C236.514 11.72 237.294 12.34 238.714 12.34C239.304 12.34 239.794 12.21 240.214 12V14H241.774V8.62H240.214ZM247.081 14H248.921L246.911 11.2L248.791 8.62H247.131L245.671 10.71H244.831V8.62H243.271V14H244.831V11.96H245.641L247.081 14ZM249.688 14H251.128L253.738 10.8V14H255.288V8.62H253.858L251.238 11.82V8.62H249.688V14ZM257.357 12.14C256.807 12.14 256.387 12.52 256.387 13.1C256.387 13.51 256.597 13.82 256.927 13.95L256.487 15.54H257.477L258.047 14.1C258.277 13.55 258.317 13.36 258.317 13.1C258.317 12.53 257.917 12.14 257.357 12.14ZM137.56 26H139.4L137.39 23.2L139.27 20.62H137.61L136.15 22.71H135.31V20.62H133.75V26H135.31V23.96H136.12L137.56 26ZM142.52 26.08C144.23 26.08 145.47 24.93 145.47 23.31C145.47 21.69 144.23 20.54 142.52 20.54C140.81 20.54 139.56 21.69 139.56 23.31C139.56 24.93 140.81 26.08 142.52 26.08ZM142.52 24.8C141.74 24.8 141.14 24.24 141.14 23.31C141.14 22.38 141.74 21.82 142.52 21.82C143.3 21.82 143.89 22.38 143.89 23.31C143.89 24.24 143.3 24.8 142.52 24.8ZM150.868 20.62H145.678V21.9H147.498V26H149.048V21.9H150.868V20.62ZM153.995 26.08C155.705 26.08 156.945 24.93 156.945 23.31C156.945 21.69 155.705 20.54 153.995 20.54C152.285 20.54 151.035 21.69 151.035 23.31C151.035 24.93 152.285 26.08 153.995 26.08ZM153.995 24.8C153.215 24.8 152.615 24.24 152.615 23.31C152.615 22.38 153.215 21.82 153.995 21.82C154.775 21.82 155.365 22.38 155.365 23.31C155.365 24.24 154.775 24.8 153.995 24.8ZM161.188 20.54C160.468 20.54 159.888 20.77 159.498 21.24V20.62H158.008V27.94H159.568V25.43C159.968 25.87 160.518 26.08 161.188 26.08C162.698 26.08 163.868 25 163.868 23.31C163.868 21.62 162.698 20.54 161.188 20.54ZM160.918 24.8C160.138 24.8 159.548 24.24 159.548 23.31C159.548 22.38 160.138 21.82 160.918 21.82C161.698 21.82 162.288 22.38 162.288 23.31C162.288 24.24 161.698 24.8 160.918 24.8ZM167.791 22.34H166.511V20.62H164.961V26L167.581 26.01C169.081 26.01 169.921 25.32 169.921 24.13C169.921 23 169.201 22.35 167.791 22.34ZM170.501 26H172.051V20.62H170.501V26ZM167.441 24.9H166.511V23.34L167.441 23.35C168.041 23.36 168.371 23.58 168.371 24.11C168.371 24.64 168.041 24.91 167.441 24.9ZM178.785 23.33C178.785 21.6 177.565 20.54 175.985 20.54C174.345 20.54 173.115 21.7 173.115 23.31C173.115 24.91 174.325 26.08 176.185 26.08C177.155 26.08 177.905 25.78 178.405 25.21L177.575 24.31C177.205 24.66 176.795 24.83 176.225 24.83C175.405 24.83 174.835 24.42 174.685 23.75H178.755C178.765 23.62 178.785 23.45 178.785 23.33ZM175.995 21.72C176.695 21.72 177.205 22.16 177.315 22.84H174.665C174.775 22.15 175.285 21.72 175.995 21.72ZM182.813 20.62V26H184.363V21.9H186.603V26H188.163V20.62H182.813ZM192.828 20.54C192.108 20.54 191.528 20.77 191.138 21.24V20.62H189.648V27.94H191.208V25.43C191.608 25.87 192.158 26.08 192.828 26.08C194.338 26.08 195.508 25 195.508 23.31C195.508 21.62 194.338 20.54 192.828 20.54ZM192.558 24.8C191.778 24.8 191.188 24.24 191.188 23.31C191.188 22.38 191.778 21.82 192.558 21.82C193.338 21.82 193.928 22.38 193.928 23.31C193.928 24.24 193.338 24.8 192.558 24.8ZM199.122 26.08C200.832 26.08 202.072 24.93 202.072 23.31C202.072 21.69 200.832 20.54 199.122 20.54C197.412 20.54 196.162 21.69 196.162 23.31C196.162 24.93 197.412 26.08 199.122 26.08ZM199.122 24.8C198.342 24.8 197.742 24.24 197.742 23.31C197.742 22.38 198.342 21.82 199.122 21.82C199.902 21.82 200.492 22.38 200.492 23.31C200.492 24.24 199.902 24.8 199.122 24.8ZM208.326 24.72V20.62H203.636L203.566 22.48C203.506 23.65 203.376 24.7 202.636 24.72H202.416V27.16H203.866V26H207.646V27.16H209.096V24.72H208.326ZM204.976 22.59L205.006 21.9H206.766V24.72H204.496C204.876 24.32 204.946 23.5 204.976 22.59ZM212.168 20.54C211.308 20.54 210.438 20.77 209.848 21.19L210.408 22.28C210.798 21.97 211.388 21.78 211.958 21.78C212.798 21.78 213.198 22.17 213.198 22.84H211.958C210.318 22.84 209.648 23.5 209.648 24.45C209.648 25.38 210.398 26.08 211.658 26.08C212.448 26.08 213.008 25.82 213.298 25.33V26H214.758V22.93C214.758 21.3 213.808 20.54 212.168 20.54ZM212.048 25.03C211.498 25.03 211.168 24.77 211.168 24.38C211.168 24.02 211.398 23.75 212.128 23.75H213.198V24.3C213.018 24.79 212.568 25.03 212.048 25.03ZM221.203 20.54C219.783 20.54 218.713 21.36 218.413 22.6H217.663V20.62H216.113V26H217.663V23.95H218.403C218.673 25.22 219.763 26.08 221.203 26.08C222.863 26.08 224.063 24.93 224.063 23.31C224.063 21.68 222.863 20.54 221.203 20.54ZM221.203 24.8C220.453 24.8 219.873 24.24 219.873 23.31C219.873 22.37 220.453 21.82 221.203 21.82C221.943 21.82 222.523 22.37 222.523 23.31C222.523 24.24 221.943 24.8 221.203 24.8ZM229.471 20.62H224.281V21.9H226.101V26H227.651V21.9H229.471V20.62Z" fill="white"/>
</svg>
