<svg width="208" height="28" viewBox="0 0 208 28" fill="none" xmlns="http://www.w3.org/2000/svg">
<line y1="15.9685" x2="65" y2="15.9685" stroke="black" stroke-width="2"/>
<line x1="143" y1="15.9685" x2="208" y2="15.9685" stroke="black" stroke-width="2"/>
<path d="M127 17.5906C127 25.5113 106.321 28.1878 92.3254 25.6275C88.3529 27.9669 84.7421 28.8576 82.8501 27.004C77.5644 21.8264 84.8851 11.5646 88.8443 7.68484C92.8041 3.8056 103.279 -3.3656 108.565 1.81251C110.119 3.33555 109.872 5.88336 108.5 8.80731C118.377 9.552 127 12.4781 127 17.5906ZM95.2164 23.718C107.699 25.1705 124.619 23.1296 124.619 17.5906C124.618 15.8737 122.986 14.494 120.37 13.4502C119.978 14.1884 119.27 14.811 118.244 15.3174C118.643 14.4641 118.833 13.6587 118.815 12.9015C117.613 12.5281 116.268 12.21 114.82 11.9473C114.925 13.3026 114.226 14.4641 112.725 15.4298C113.217 13.9556 113.157 12.6762 112.546 11.5912C111.236 11.4154 109.871 11.2791 108.473 11.1831C108.944 12.8711 108.291 14.2872 106.515 15.4298C106.928 14.19 106.952 13.0871 106.586 12.1226C103.805 16.2434 99.4915 20.6089 95.2164 23.718ZM96.8985 4.70878C99.3164 5.84373 100.087 7.71632 99.2078 10.3271C98.2493 7.79448 96.4498 6.59168 93.8103 6.72032C92.7509 7.48998 91.8279 8.2439 91.1348 8.8681C93.8767 9.68932 94.9527 11.4935 94.3626 14.2829C93.1642 11.9679 91.3375 10.96 88.8831 11.2585C88.1839 12.1014 87.4249 13.0953 86.7018 14.1683C89.7934 14.919 91.0273 16.7655 90.4051 19.7106C89.2493 17.4798 87.5107 16.4627 85.1893 16.6597C83.4545 19.8903 82.5559 23.3131 84.587 25.3029C88.4892 29.1257 110.939 7.54155 106.828 3.51413C104.567 1.29959 100.495 2.6408 96.8985 4.70878Z" fill="black"/>
</svg>
